<svg width="300" height="276" viewBox="0 0 300 276" fill="none" xmlns="http://www.w3.org/2000/svg">
<g clip-path="url(#clip0_592_11307)">
<g filter="url(#filter0_ddd_592_11307)">
<path d="M-1.11638e-10 4C0 1.79087 1.79086 0 4 0H296C298.209 0 300 1.79086 300 4L300 280.361C300 282.571 298.208 284.363 295.998 284.361L3.99771 284.195C1.78946 284.194 -7.88175e-09 282.403 -7.82011e-09 280.195L-1.11638e-10 4Z" fill="url(#paint0_linear_592_11307)"/>
</g>
<mask id="mask0_592_11307" style="mask-type:alpha" maskUnits="userSpaceOnUse" x="-206" y="-56" width="706" height="452">
<path d="M408.033 327.196L-131.895 327.196C-120.055 266.212 198.297 -20.2714 336.398 -52.8907C474.499 -85.5101 494.272 169.817 499.6 327.196L408.033 327.196Z" fill="url(#paint1_linear_592_11307)"/>
<path d="M-142.999 116.352L-142.999 327.196L408.033 327.196L408.033 154.171C408.033 154.171 320.66 224.876 277.273 203.337C233.886 181.798 121.274 -84.5645 22.1508 -8.92544C-76.9722 66.7136 -79.2183 127.432 -142.999 116.352Z" fill="url(#paint2_linear_592_11307)"/>
<path d="M397.718 327.184L428.678 311.618C496.645 506.268 446.517 306.052 483.475 284.066L485.21 283.194C484.611 283.443 484.033 283.734 483.475 284.066L428.678 311.618C413.858 269.174 393.423 207.957 365.246 122.025C205.895 -363.957 383.21 347.05 -104.82 74.599C-214.862 13.1667 -246.485 38.1777 -141.39 327.184L-88.1504 327.184L397.718 327.184Z" fill="url(#paint3_linear_592_11307)"/>
</mask>
<g mask="url(#mask0_592_11307)">
<rect width="547.033" height="378.196" transform="matrix(-1 -8.74228e-08 -8.74228e-08 1 408.033 -51)" fill="white"/>
</g>
</g>
<defs>
<filter id="filter0_ddd_592_11307" x="-3" y="-2" width="306" height="290.361" filterUnits="userSpaceOnUse" color-interpolation-filters="sRGB">
<feFlood flood-opacity="0" result="BackgroundImageFix"/>
<feColorMatrix in="SourceAlpha" type="matrix" values="0 0 0 0 0 0 0 0 0 0 0 0 0 0 0 0 0 0 127 0" result="hardAlpha"/>
<feOffset dy="1"/>
<feGaussianBlur stdDeviation="1.5"/>
<feColorMatrix type="matrix" values="0 0 0 0 0 0 0 0 0 0 0 0 0 0 0 0 0 0 0.2 0"/>
<feBlend mode="normal" in2="BackgroundImageFix" result="effect1_dropShadow_592_11307"/>
<feColorMatrix in="SourceAlpha" type="matrix" values="0 0 0 0 0 0 0 0 0 0 0 0 0 0 0 0 0 0 127 0" result="hardAlpha"/>
<feOffset dy="2"/>
<feGaussianBlur stdDeviation="0.5"/>
<feColorMatrix type="matrix" values="0 0 0 0 0 0 0 0 0 0 0 0 0 0 0 0 0 0 0.12 0"/>
<feBlend mode="normal" in2="effect1_dropShadow_592_11307" result="effect2_dropShadow_592_11307"/>
<feColorMatrix in="SourceAlpha" type="matrix" values="0 0 0 0 0 0 0 0 0 0 0 0 0 0 0 0 0 0 127 0" result="hardAlpha"/>
<feOffset dy="1"/>
<feGaussianBlur stdDeviation="0.5"/>
<feColorMatrix type="matrix" values="0 0 0 0 0 0 0 0 0 0 0 0 0 0 0 0 0 0 0.14 0"/>
<feBlend mode="normal" in2="effect2_dropShadow_592_11307" result="effect3_dropShadow_592_11307"/>
<feBlend mode="normal" in="SourceGraphic" in2="effect3_dropShadow_592_11307" result="shape"/>
</filter>
<linearGradient id="paint0_linear_592_11307" x1="0.426772" y1="284.364" x2="318.498" y2="253.91" gradientUnits="userSpaceOnUse">
<stop stop-color="#05944F"/>
<stop offset="1" stop-color="#5BC364"/>
</linearGradient>
<linearGradient id="paint1_linear_592_11307" x1="235.686" y1="-617.348" x2="310.526" y2="296.406" gradientUnits="userSpaceOnUse">
<stop stop-color="white"/>
<stop offset="1" stop-color="white" stop-opacity="0"/>
</linearGradient>
<linearGradient id="paint2_linear_592_11307" x1="313.462" y1="-605.056" x2="-75.8184" y2="152.947" gradientUnits="userSpaceOnUse">
<stop stop-color="white"/>
<stop offset="1" stop-color="white" stop-opacity="0"/>
</linearGradient>
<linearGradient id="paint3_linear_592_11307" x1="67.4111" y1="-870.938" x2="485.139" y2="157.525" gradientUnits="userSpaceOnUse">
<stop stop-color="white"/>
<stop offset="1" stop-color="white" stop-opacity="0"/>
</linearGradient>
<clipPath id="clip0_592_11307">
<rect width="300" height="276" rx="4" fill="white"/>
</clipPath>
</defs>
</svg>
